<svg height="512pt" viewBox="-208 0 512 512" width="512pt" xmlns="http://www.w3.org/2000/svg"><path d="m71.960938 190.503906v-118.695312c3.949218-2.992188 7.328124-6.664063 9.941406-10.886719.242187-.304687.511718-.578125.714844-.921875.183593-.320312.199218-.679688.335937-1.007812 3.09375-5.671876 5.015625-12.082032 5.015625-18.984376 0-6.894531-1.914062-13.296874-5.007812-18.976562-.144532-.34375-.160157-.710938-.351563-1.039062-.152344-.25-.394531-.398438-.554687-.625-7.023438-11.558594-19.605469-19.367188-34.085938-19.367188-14.496094 0-27.097656 7.832031-34.113281 19.398438-.160157.21875-.390625.363281-.527344.601562-.175781.3125-.191406.664062-.335937.992188-3.105469 5.679687-5.023438 12.097656-5.023438 19.007812 0 6.921875 1.925781 13.335938 5.03125 19.023438.136719.320312.152344.664062.328125.96875.183594.328124.449219.574218.671875.863281 2.625 4.265625 6.007812 7.945312 9.976562 10.953125v118.710937c-14.3125 8.3125-23.976562 23.777344-23.976562 41.488281 0 .015626.0078125.03125.0078125.046876v255.945312c0 13.230469 10.7695315 24 23.9999995 24h47.953126c13.230468 0 24-10.769531 24-24v-255.953125c0-.015625.007812-.03125.007812-.046875 0-17.71875-9.679688-33.191406-24.007812-41.496094zm-39.714844-132.519531c2.890625-2.457031 3.832031-6.585937 1.867187-9.992187-1.984375-3.433594-6.105469-4.6875-9.679687-3.351563-.289063-1.496094-.464844-3.054687-.464844-4.640625 0-1.558594.167969-3.078125.464844-4.550781.894531.328125 1.8125.550781 2.742187.550781 2.769531 0 5.457031-1.441406 6.9375-4 1.957031-3.398438 1.023438-7.535156-1.867187-9.992188 2.328125-2.03125 5.019531-3.601562 8-4.617187.683594 3.730469 3.792968 6.609375 7.722656 6.609375 3.925781 0 7.039062-2.878906 7.71875-6.609375 2.984375 1.015625 5.679688 2.585937 8.007812 4.625-2.894531 2.457031-3.839843 6.601563-1.863281 10 1.488281 2.558594 4.167969 3.992187 6.929688 3.992187.925781 0 1.847656-.222656 2.75-.558593.289062 1.472656.457031 2.992187.457031 4.550781 0 1.59375-.167969 3.144531-.472656 4.648438-3.59375-1.335938-7.703125-.082032-9.679688 3.359374-1.960937 3.390626-1.023437 7.527344 1.863282 9.984376-2.320313 2.03125-5.015626 3.601562-8 4.617187-.671876-3.730469-3.785157-6.609375-7.710938-6.609375-3.929688 0-7.039062 2.878906-7.722656 6.609375-2.980469-1.015625-5.679688-2.585937-8-4.625zm7.730468 21.207031c2.582032.527344 5.253907.808594 7.992188.808594 2.734375 0 5.40625-.28125 7.992188-.808594v105.535156c-2.601563-.4375-5.25-.71875-7.976563-.71875-2.738281 0-5.398437.28125-8.007813.726563zm8.007813 120.824219c17.632813 0 31.984375 14.351563 31.984375 31.984375v.007812c0 .015626-.007812.03125-.007812.046876v239.945312h-63.953126v-239.945312c0-.015626-.007812-.03125-.007812-.046876v-.007812c0-17.632812 14.351562-31.984375 31.984375-31.984375zm23.976563 295.984375h-47.953126c-4.414062 0-8-3.585938-8-8h63.953126c0 4.414062-3.585938 8-8 8zm0 0"/><path d="m47.96875 376.039062c13.230469 0 24-10.765624 24-24v-32.007812c0-13.230469-10.769531-24-24-24-13.234375 0-24 10.769531-24 24v32.007812c0 13.234376 10.765625 24 24 24zm0-16c-4.417969 0-8-3.582031-8-8v-9.488281c2.511719.898438 5.175781 1.480469 8 1.480469s5.488281-.574219 8-1.480469v9.488281c0 4.417969-3.585938 8-8 8zm0-48.007812c4.414062 0 8 3.585938 8 8 0 4.417969-3.585938 8-8 8-4.417969 0-8-3.582031-8-8 0-4.414062 3.582031-8 8-8zm0 0"/><path d="m39.96875 239.992188h16c4.421875 0 8-3.578126 8-8 0-4.425782-3.578125-8-8-8h-16c-4.425781 0-8 3.574218-8 8 0 4.421874 3.574219 8 8 8zm0 0"/></svg>